PathFileType	4	(X/Y/Z)	c:/Users/goper/Files/vsCode/490R/osim_files/C17/C17_Fast_01.trc
DataRate	CameraRate	NumFrames	NumMarkers	Units                	OrigDataRate	OrigDataStartFrame	OrigNumFrames
250.00	250.00	10	36	mm	250.0	1076	2868
                Frame#	Time	LPSIS			LASIS			LTH1			LTH2			LTH3			LTH4			LLFE			LMFE			LSH1			LSH2			LSH3			LSH4			LLMAL			LMMAL			LCAL			LMTP5			LTOE			LMTP1			RPSIS			RASIS			RTH1			RTH2			RTH3			RTH4			RLFE			RMFE			RSH1			RSH2			RSH3			RSH4			RLMAL			RMMAL			RCAL			RMTP1			RTOE			RMTP5		
		X1	Y1	Z1	X2	Y2	Z2	X3	Y3	Z3	X4	Y4	Z4	X5	Y5	Z5	X6	Y6	Z6	X7	Y7	Z7	X8	Y8	Z8	X9	Y9	Z9	X10	Y10	Z10	X11	Y11	Z11	X12	Y12	Z12	X13	Y13	Z13	X14	Y14	Z14	X15	Y15	Z15	X16	Y16	Z16	X17	Y17	Z17	X18	Y18	Z18	X19	Y19	Z19	X20	Y20	Z20	X21	Y21	Z21	X22	Y22	Z22	X23	Y23	Z23	X24	Y24	Z24	X25	Y25	Z25	X26	Y26	Z26	X27	Y27	Z27	X28	Y28	Z28	X29	Y29	Z29	X30	Y30	Z30	X31	Y31	Z31	X32	Y32	Z32	X33	Y33	Z33	X34	Y34	Z34	X35	Y35	Z35	X36	Y36	Z36

1076	4.30000	674.25690	1029.23828	310.03723	475.88724	986.61218	393.84988	423.63782	667.93066	409.24161	395.95474	634.92999	398.95120	374.72107	704.20886	410.58994	352.83932	666.72217	399.79965	315.75928	499.02359	350.60974	325.71362	513.07233	227.53563	354.60178	266.22546	338.25174	350.14249	224.24019	333.64694	293.85504	268.88046	332.14481	298.88535	225.82639	326.09717	333.57996	90.40459	308.77271	325.33890	100.49313	219.72650	411.04465	48.08356	268.19012	214.94136	44.07885	324.78888	161.40208	69.38048	257.69092	180.82137	45.25581	210.57751	670.53595	1023.34131	235.08760	495.71082	1000.20154	129.57581	613.78198	704.80774	75.33981	619.93939	658.48755	81.95079	553.55774	691.51294	83.17031	568.12360	646.02594	84.62129	666.10596	441.14993	94.95222	646.37976	451.10825	218.78259	864.38861	376.56219	104.63602	894.33002	344.71484	116.76931	824.42712	327.85178	104.91792	862.42236	301.84738	117.04118	1017.13635	221.89281	153.85255	987.75214	220.11946	236.81871	1065.38367	286.61346	187.81419	1024.45166	82.05558	289.48190	1001.71564	62.44237	248.47406	1057.04895	78.82347	177.28687
1077	4.30400	667.19232	1029.86780	309.25613	468.76337	987.89801	394.47919	417.80740	667.91052	409.08731	390.29678	634.70398	398.68777	368.55380	703.78326	410.65842	346.89810	666.24634	399.80121	311.70517	498.21637	350.21164	320.33255	512.46930	227.43196	352.67209	266.33014	337.73965	349.41318	224.43547	333.52524	291.86359	268.37262	331.97424	297.30276	225.36539	325.86087	333.31393	90.40920	308.50055	324.97382	100.26929	219.47676	410.98422	48.27104	268.11108	214.87561	43.96326	324.88626	161.22391	68.61684	257.51370	180.77315	45.23502	209.86365	663.23224	1023.69513	234.40492	487.64273	1000.38647	129.86563	603.19727	703.39099	74.77170	608.75714	657.03900	81.40444	542.90881	691.17755	82.85228	556.68628	645.38953	84.35255	651.64795	440.19318	94.75462	632.60339	449.78336	218.35718	850.78314	377.25040	103.41917	881.09302	345.74173	115.36034	811.29169	328.20175	103.93869	849.65594	302.62244	115.79153	1004.61713	224.24841	151.41650	976.38800	222.20847	234.92699	1052.19373	290.27603	185.44524	1016.09808	83.19135	287.02643	994.40350	61.36330	245.74750	1049.08411	82.18767	175.28209
1078	4.30800	660.10638	1030.70459	308.53864	461.21609	989.27289	394.76791	412.19339	667.85779	408.97961	385.01974	634.47540	398.55917	362.73871	703.37274	410.80865	341.35062	665.62268	399.88434	307.30820	497.59784	350.44769	315.42358	511.94177	227.26874	350.81488	266.66330	337.44733	347.28955	224.67445	333.03693	290.01141	268.12103	332.01114	295.83044	225.13870	325.90109	333.01675	90.40897	308.34973	324.58707	100.18235	219.35719	410.83655	48.46917	268.04883	214.79193	43.81613	325.10858	161.15576	68.10604	257.54266	180.58662	44.92948	209.80893	656.01495	1024.27295	233.80176	479.99478	1000.82324	129.77882	592.13104	701.92236	74.88107	598.05743	656.09045	80.65240	532.20093	690.90594	82.63902	544.60071	644.83923	84.08054	637.57837	439.06403	94.25130	618.90424	448.77448	218.01019	837.15997	377.93796	102.13634	867.68469	346.60919	113.88811	798.00323	328.46704	102.91449	836.63770	303.18271	114.55910	993.94214	227.34076	149.65811	964.89557	224.30438	233.13358	1039.42822	293.84485	184.08237	1007.19043	84.74627	284.29175	986.55597	62.07465	243.16576	1039.83167	85.58001	173.04929
1079	4.31200	652.94336	1031.68567	307.86154	454.01617	990.44373	395.19925	406.69971	667.82269	408.77560	379.89764	634.23376	398.45325	357.27130	703.06757	411.22690	336.07071	665.10419	400.05038	303.20392	497.19684	350.56213	310.85028	511.46097	227.13263	348.97171	267.11145	337.36356	345.68762	224.87157	332.16403	288.12381	267.82785	332.12885	294.15323	224.80574	326.19858	332.79395	90.44142	308.26816	324.28308	100.16205	219.31250	410.74960	48.69519	268.02371	214.72778	43.65682	325.32492	160.98149	67.59747	257.73154	180.42642	44.70368	209.85745	648.71155	1024.96265	233.18057	472.16727	1000.93512	129.92175	582.66333	701.52539	73.90713	586.75317	654.83661	80.40586	521.98938	690.83258	82.46832	533.93866	644.70471	83.98461	623.28595	438.02731	93.82463	605.23724	448.06863	217.60997	823.19427	378.44604	100.77328	854.20758	347.42856	112.34120	784.55804	328.65723	101.94954	823.42133	303.74545	113.40607	982.77539	230.47131	148.34341	953.01849	225.75481	231.50969	1026.35083	296.89130	183.11801	997.38861	86.65398	281.35574	977.16895	64.47211	239.86359	1030.16187	88.99729	169.91197
1080	4.31600	645.73743	1032.79688	307.22971	446.76471	991.72479	395.72604	401.95224	668.09082	408.94531	375.16913	634.18842	398.48273	351.96225	702.77692	411.51306	331.00241	664.59534	400.28094	299.25461	496.79935	350.70828	306.62222	511.13760	227.16687	347.13770	267.57861	337.59637	344.30600	225.28407	332.41214	286.31433	267.62305	332.29800	292.95636	224.79485	326.29538	332.55936	90.46737	308.26959	324.01166	100.19181	219.31691	410.66525	48.91357	268.04739	214.62379	43.53170	325.51474	160.84488	67.13303	257.82782	180.29053	44.46176	209.88412	641.18744	1025.73743	232.61102	464.27585	1001.14722	130.14737	572.05847	700.63782	73.47953	575.52594	654.00250	79.95026	511.26855	690.95197	82.50694	522.52460	644.70337	83.90456	608.83362	437.22592	93.29087	591.75281	447.62698	217.22435	809.27173	378.88477	99.27364	840.68005	348.27600	110.78467	770.97369	328.79626	101.08656	810.06250	304.20694	112.44643	970.99860	233.33893	146.54993	941.07654	227.32672	230.01747	1014.06128	299.93906	182.44684	986.16541	88.42516	278.02536	966.12177	67.16225	235.98093	1019.20654	92.13269	166.64003
1081	4.32000	638.52692	1034.09741	306.71936	440.05127	992.29395	396.32437	396.99054	668.41498	408.87573	370.79156	634.29016	398.58960	346.81302	702.59723	411.84778	326.34152	664.29993	400.68146	295.55801	496.64023	350.98322	302.72897	510.72861	227.33554	345.17654	267.82352	337.96762	342.75336	225.51309	332.76529	284.49039	267.33432	332.54718	291.56128	224.59373	326.57477	332.32797	90.50388	308.29230	323.75006	100.22180	219.33208	410.59924	49.12794	268.06845	214.54044	43.41065	325.65009	160.69246	66.69150	257.79425	180.18347	44.22575	209.85181	633.95154	1026.75928	232.12167	456.46219	1000.70795	130.57811	561.49481	700.16107	73.23216	564.71832	653.67261	79.36375	500.65387	691.39648	82.56119	511.14352	644.87976	83.87440	594.72028	436.71347	92.71287	578.20868	447.32635	216.78644	795.66736	379.44760	97.36640	827.16724	349.13617	109.33979	757.40485	328.99457	100.13240	796.81628	304.85455	111.38141	959.33374	236.39041	144.81584	928.74249	229.18300	228.46764	1001.72809	302.26953	182.21303	972.60699	88.86350	274.11270	953.65314	68.90363	232.00226	1007.09082	94.93184	163.29776
1082	4.32400	631.31976	1035.51245	306.24530	432.91238	993.57635	396.72269	392.69034	669.12543	409.14267	366.51630	634.56683	398.85352	341.95401	702.61676	412.34189	321.64249	663.96527	401.06808	292.04617	496.54132	351.26370	298.66257	510.24771	227.63701	343.41354	268.00568	338.63284	341.30923	225.63577	333.26581	282.85370	267.14603	332.60818	289.85669	224.06978	326.98407	332.15656	90.50142	308.31509	323.55734	100.26730	219.35005	410.55884	49.30878	268.09445	214.48907	43.28765	325.73706	160.59509	66.26829	257.74545	180.12784	44.01303	209.79939	626.70465	1027.88013	231.68843	448.83539	1000.94128	130.76753	550.84894	699.92706	73.01052	554.66669	653.94067	78.82695	489.94379	691.92645	82.65668	499.81360	645.36707	83.83163	580.68036	436.45126	92.17793	564.83759	447.24771	216.16476	781.62531	379.94592	96.04771	813.65411	350.04327	107.89655	743.97369	329.52411	99.17745	783.55121	305.62805	110.46255	947.40552	239.38327	143.37372	916.24854	231.11372	227.07845	990.12585	304.49646	182.15485	959.02972	89.47888	270.38971	940.04340	69.95491	227.95200	994.15509	97.28804	159.54245
1083	4.32800	624.00531	1037.02161	305.89014	425.85156	994.94080	397.05615	387.30106	669.40442	408.97565	362.35498	635.01312	399.25238	337.23871	702.82965	412.89337	317.27890	663.93610	401.73669	288.49258	496.28772	351.61127	295.42694	509.87390	227.72104	341.57080	268.04260	339.21521	339.89328	225.68425	333.75729	280.91464	266.47086	333.17847	288.77335	223.85580	327.00079	331.95883	90.48565	308.37570	323.33792	100.29926	219.40416	410.45206	49.47068	268.16586	214.42664	43.17363	325.87994	160.33754	65.80696	257.85980	180.09816	43.79554	209.86948	619.42462	1029.12219	231.36211	441.18222	1001.27618	131.00121	540.15088	699.88525	72.82149	543.49377	653.90173	78.61380	479.17316	692.67084	82.77415	488.14023	645.88281	84.00446	566.72473	436.41003	91.39278	551.65765	447.45135	215.57571	767.78827	380.58719	94.89091	800.32538	351.18436	106.54256	730.54138	330.21027	98.20441	770.28876	306.63351	109.62303	935.22217	242.20525	142.03758	903.37238	232.69917	225.80191	978.45532	306.15161	182.21452	945.31384	90.15142	266.85129	925.04974	70.95238	223.01216	979.81689	99.08094	155.72264
1084	4.33200	616.72021	1038.68689	305.58502	418.80054	996.27771	397.27426	383.68533	670.43774	409.46198	358.17075	635.52307	399.64423	332.59778	703.17542	413.32587	312.89600	664.06244	402.38431	285.11990	496.15851	351.93503	292.85165	509.06171	228.29378	339.88272	268.04456	339.72366	338.37134	225.58032	334.07980	279.13959	265.94617	333.41492	287.07147	223.26738	327.33530	331.77161	90.48547	308.44638	323.12045	100.36385	219.47585	410.38724	49.66755	268.19379	214.29361	43.04290	325.99750	160.24019	65.51341	257.91220	179.92293	43.72345	209.79901	612.24896	1030.50256	231.06436	433.74860	1001.54907	131.14211	528.77966	700.00330	72.63143	530.63123	653.41595	78.50629	468.49118	693.59406	82.66345	477.16092	646.77789	83.61887	552.81885	436.71884	90.56648	538.34082	447.72116	214.86789	754.45642	381.82327	93.17961	787.00421	352.53568	105.33283	716.95770	330.74518	97.28236	757.10077	307.95798	108.71751	922.65692	244.70866	140.86404	890.50696	234.41086	224.90659	966.72241	307.20312	182.38560	929.87915	90.05224	262.87729	909.51990	72.05777	219.04755	964.17010	100.57899	153.39694
1085	4.33600	609.49615	1040.39233	305.32990	411.70169	997.69867	397.48340	379.50714	671.37878	409.76529	354.04388	636.04510	400.02118	327.93042	703.47559	413.74683	308.44333	664.13885	402.89624	281.86307	495.94745	352.37930	290.42709	508.44968	228.65988	338.24728	267.97754	340.20731	337.01294	225.44455	334.38535	277.55469	265.42441	333.67081	286.04547	223.00526	327.25900	331.52573	90.46201	308.48438	322.88614	100.41460	219.57176	410.27524	49.86536	268.24829	214.16824	42.91025	326.14191	160.13824	65.21466	258.00854	179.82732	43.62877	209.86360	605.28821	1031.99377	230.83081	426.42468	1002.02307	131.25864	518.32288	700.47205	72.54670	519.35486	653.82147	78.28828	457.71384	694.76111	82.65359	465.75610	647.81683	83.51118	538.88989	437.28128	89.72862	525.01752	448.21045	214.04224	740.98944	383.10553	91.95570	773.62006	353.99020	104.28472	704.59473	332.55270	96.07085	743.89722	309.33163	107.83524	909.81140	246.91949	139.88121	877.20227	235.73984	223.96815	955.02032	307.82651	182.75597	913.74371	89.61417	258.88132	893.10608	72.94323	215.02946	948.02374	101.97312	149.56400
